<svg width="30" height="24" viewBox="0 0 30 24" fill="none" xmlns="http://www.w3.org/2000/svg">
<path d="M7.65269 23.3198C6.69217 23.7511 4.83448 24.4373 3.88593 23.6154C3.22671 23.0442 3.26337 21.6041 3.31026 20.8169C3.45917 18.3249 4.87563 15.8671 6.37316 13.9356C8.16351 11.627 10.843 9.86529 13.763 9.76677C15.9796 9.69195 18.1633 10.5816 19.8941 11.9684C21.6248 13.3552 22.9325 15.2119 23.9369 17.1891C24.427 18.1538 24.8578 19.1852 24.8743 20.2672C24.8905 21.3492 24.4121 22.4965 23.461 23.0126C22.6985 23.4263 21.7567 23.3777 20.9316 23.1096C20.1066 22.8417 19.363 22.3753 18.5991 21.964C17.1898 21.2055 15.6262 20.6149 14.0289 20.7119C11.7195 20.8526 9.76355 22.372 7.65269 23.3198Z" fill="black"/>
<path d="M5.46221 11.1433C5.74581 13.4806 3.97017 14.7522 2.15663 12.995C1.04446 11.9175 0.178717 10.0007 0.0235771 8.4595C-0.0544918 7.6828 0.0405378 6.80508 0.62618 6.28903C1.18738 5.79443 2.06484 5.79168 2.73454 6.12516C3.40424 6.45864 3.89535 7.06797 4.2812 7.70899C4.90999 8.75381 5.3153 9.93258 5.46221 11.1433Z" fill="black"/>
<path d="M12.1669 4.84918C12.5405 6.42228 12.0968 8.85015 9.97145 8.67157C7.42735 8.45781 7.13179 4.06774 7.4069 2.25869C7.50991 1.58026 7.77355 0.822767 8.41332 0.574842C8.8538 0.403988 9.36686 0.535183 9.75571 0.80381C10.1443 1.07219 10.4311 1.46154 10.6988 1.85088C11.332 2.77349 11.9082 3.7602 12.1669 4.84918Z" fill="black"/>
<path d="M21.0138 3.82031C21.0367 2.77798 20.8043 1.68376 20.1199 0.897339C19.4354 0.110913 18.2257 -0.268956 17.3019 0.214173C16.3429 0.715511 15.9899 1.89877 15.8318 2.96904C15.6168 4.42241 15.2699 7.09322 16.3314 8.31763C16.9958 9.0841 17.9923 8.68528 18.7543 8.24255C20.2491 7.37357 20.9776 5.47647 21.0138 3.82031Z" fill="black"/>
<path d="M27.2741 13.3564C25.7773 14.7681 22.7179 14.3306 22.988 11.8955C23.1706 10.2484 24.2918 8.5513 25.3079 7.28748C25.9277 6.51677 26.8346 5.7725 27.8001 5.98725C28.5658 6.1576 29.0926 6.91335 29.2266 7.68631C29.3603 8.45926 29.1774 9.24943 28.9697 10.0059C28.6337 11.2286 28.1967 12.4864 27.2741 13.3564Z" fill="black"/>
</svg>
